<svg xmlns="http://www.w3.org/2000/svg" viewBox="0 0 32 32" fill="none">
  <!-- Background circle -->
  <circle cx="16" cy="16" r="16" fill="url(#gradient)"/>
  
  <!-- House/ building -->
  <path d="M8 20V12L16 6L24 12V20H8Z" fill="white" opacity="0.9"/>
  
  <!-- Solar panels on roof -->
  <rect x="10" y="8" width="4" height="2" fill="white" opacity="0.7"/>
  <rect x="18" y="8" width="4" height="2" fill="white" opacity="0.7"/>
  <rect x="14" y="10" width="4" height="2" fill="white" opacity="0.7"/>
  
  <!-- Door -->
  <rect x="14" y="16" width="4" height="4" fill="white" opacity="0.8"/>
  
  <!-- Windows -->
  <rect x="10" y="14" width="2" height="2" fill="white" opacity="0.6"/>
  <rect x="20" y="14" width="2" height="2" fill="white" opacity="0.6"/>
  
  <!-- Sun rays -->
  <path d="M26 8L28 6M28 8L26 6" stroke="white" stroke-width="1" opacity="0.8"/>
  <path d="M26 24L28 26M28 24L26 26" stroke="white" stroke-width="1" opacity="0.8"/>
  <path d="M8 8L6 6M6 8L8 6" stroke="white" stroke-width="1" opacity="0.8"/>
  <path d="M8 24L6 26M6 24L8 26" stroke="white" stroke-width="1" opacity="0.8"/>
  
  <!-- Gradient definition -->
  <defs>
    <linearGradient id="gradient" x1="0%" y1="0%" x2="100%" y2="100%">
      <stop offset="0%" style="stop-color:#16a34a;stop-opacity:1" />
      <stop offset="100%" style="stop-color:#eab308;stop-opacity:1" />
    </linearGradient>
  </defs>
</svg>

